<?xml version="1.0" encoding="utf-8"?>
<!-- Generator: Adobe Illustrator 23.0.3, SVG Export Plug-In . SVG Version: 6.00 Build 0)  -->
<svg version="1.1" xmlns="http://www.w3.org/2000/svg" xmlns:xlink="http://www.w3.org/1999/xlink" x="0px" y="0px"
	 viewBox="0 0 297.5 297.5" style="enable-background:new 0 0 297.5 297.5;" xml:space="preserve">
<style type="text/css">
	.st0{fill:#FFDFD4;}
	.st1{fill:#333333;}
	.st2{fill:#F7CD66;stroke:#333333;stroke-width:5;stroke-linecap:round;stroke-linejoin:round;stroke-miterlimit:10;}
	.st3{fill:#F7B746;stroke:#333333;stroke-width:4;stroke-linecap:round;stroke-linejoin:round;stroke-miterlimit:10;}
</style>
<g id="Capa_1">
	<g>
		<g id="XMLID_35_">
			<g>
				<g>
					<path class="st0" d="M228.8,271.4c-1.4,0-2.5-1.1-2.5-2.5v-23.7c0-2.6-1.3-5.1-3.5-6.5c-1.3-0.8-2.8-1.3-4.3-1.3
						c-1.1,0-2.1,0.2-3.1,0.6c-0.2,0.1-18.8,7.9-46.2,7.9c-16,0-31.7-2.7-46.4-8c-0.8-0.3-1.7-0.5-2.6-0.5c-1.6,0-3.2,0.5-4.5,1.4
						c-2.1,1.5-3.3,3.8-3.3,6.4v23.7c0,1.4-1.1,2.5-2.5,2.5H92.8c-1.3,0-2.4-1-2.5-2.3c-1.2-14.3-7.5-41.5-37-64.1
						c-4-3.1-14.7-8.6-29.4-15.2c-0.9-0.4-1.5-1.3-1.5-2.3v-34c0-1.4,1.1-2.5,2.5-2.5h6.7c2.1,0,4-0.8,5.5-2.3l34-34
						c2.1-2.1,2.8-5.2,1.9-8L62.5,75.4c-0.3-0.9-0.1-1.9,0.6-2.6c0.5-0.5,1.1-0.7,1.8-0.7c0.3,0,0.5,0,0.8,0.1l31.4,10.5
						c0.8,0.3,1.6,0.4,2.5,0.4c0.7,0,1.4-0.1,2-0.3c0.3-0.1,29.5-7.9,64.6-7.9c45.3,0,78.9,13.4,96.9,38.9
						c16.4,23.2,20.3,53.8,11.5,91.1c-7,29.8-20.4,55.5-25.9,65.2c-0.4,0.8-1.3,1.3-2.2,1.3H228.8z"/>
					<path class="st1" d="M64.9,74.6l31.4,10.5c1.1,0.4,2.2,0.5,3.3,0.5c0.9,0,1.8-0.1,2.7-0.4c0.6-0.2,29.6-7.8,63.9-7.8
						c34.1,0,73.4,7.6,94.9,37.8c37.6,53-3,133.3-14.5,153.6h-17.8v-23.7c0-3.5-1.7-6.7-4.6-8.6c-1.7-1.1-3.7-1.7-5.7-1.7
						c-1.4,0-2.7,0.3-4,0.8c-0.3,0.1-18.7,7.7-45.2,7.7c-13.5,0-29.2-2-45.6-7.9c-1.1-0.4-2.3-0.6-3.5-0.6c-2.1,0-4.2,0.6-5.9,1.9
						c-2.7,1.9-4.4,5.1-4.4,8.4v23.7H92.8c-1.2-15.3-8-43-38-65.8c-5.6-4.3-20.9-11.4-29.9-15.5v-34h6.7c2.7,0,5.4-1.1,7.3-3l34-34
						c2.8-2.8,3.7-6.8,2.5-10.5L64.9,74.6 M64.9,69.6c-1.3,0-2.6,0.5-3.5,1.5c-1.3,1.3-1.8,3.3-1.2,5.1l10.5,31.4
						c0.6,1.9,0.1,4-1.3,5.4l-34,34c-1,1-2.3,1.5-3.7,1.5h-6.7c-2.8,0-5,2.2-5,5v34c0,2,1.2,3.8,2.9,4.6c14.5,6.5,25.1,12,28.9,14.9
						c28.7,21.9,34.9,48.4,36,62.3c0.2,2.6,2.4,4.6,5,4.6h17.1c2.8,0,5-2.2,5-5v-23.7c0-1.7,0.8-3.3,2.3-4.3c0.9-0.6,1.9-1,3-1
						c0.6,0,1.2,0.1,1.8,0.3c15.1,5.4,31,8.2,47.3,8.2c27.9,0,47-8,47.2-8.1c0.6-0.3,1.3-0.4,2-0.4c1,0,2.1,0.3,2.9,0.9
						c1.5,1,2.4,2.6,2.4,4.4v23.7c0,2.8,2.2,5,5,5h17.8c1.8,0,3.5-1,4.4-2.5c5.5-9.8,19-35.8,26.1-65.9c4-16.9,5.4-32.8,4.2-47.1
						c-1.5-17.5-6.9-33-16.1-46c-10.4-14.7-25.6-25.5-45.1-32.1c-15.4-5.2-33.5-7.8-53.8-7.8c-35.4,0-64.9,7.9-65.2,8
						c-0.4,0.1-0.9,0.2-1.4,0.2c-0.6,0-1.1-0.1-1.7-0.3L66.5,69.9C65.9,69.7,65.4,69.6,64.9,69.6L64.9,69.6z"/>
				</g>
			</g>
		</g>
	</g>
	<path class="st1" d="M79,143.3c0,4.6,3.7,8.2,8.2,8.2s8.2-3.7,8.2-8.2c0-4.5-3.7-8.2-8.2-8.2h0C82.7,135,79,138.7,79,143.3z"/>
</g>
<g id="Layer_2">
	<circle class="st2" cx="168.4" cy="35.6" r="21.4"/>
</g>
<g id="Layer_3">
	<path class="st3" d="M143.8,90.9c0,0,19-6.8,49.2,0"/>
</g>
</svg>
